<mxfile host="65bd71144e">
    <diagram id="_fGKAaahKGMQ4SNxxjrG" name="class diagram">
        <mxGraphModel dx="1130" dy="792" grid="1" gridSize="10" guides="1" tooltips="1" connect="1" arrows="1" fold="1" page="1" pageScale="1" pageWidth="827" pageHeight="1169" math="0" shadow="0">
            <root>
                <mxCell id="0"/>
                <mxCell id="1" parent="0"/>
                <mxCell id="i_VqWOhbt_znTBw0zlzr-1" value="Animation" style="html=1;" parent="1" vertex="1">
                    <mxGeometry x="130" y="270" width="110" height="50" as="geometry"/>
                </mxCell>
                <mxCell id="i_VqWOhbt_znTBw0zlzr-2" value="Animator" style="swimlane;fontStyle=0;childLayout=stackLayout;horizontal=1;startSize=26;fillColor=none;horizontalStack=0;resizeParent=1;resizeParentMax=0;resizeLast=0;collapsible=1;marginBottom=0;" parent="1" vertex="1">
                    <mxGeometry x="300" y="270" width="140" height="104" as="geometry"/>
                </mxCell>
                <mxCell id="i_VqWOhbt_znTBw0zlzr-3" value="animatorName" style="text;strokeColor=none;fillColor=none;align=left;verticalAlign=top;spacingLeft=4;spacingRight=4;overflow=hidden;rotatable=0;points=[[0,0.5],[1,0.5]];portConstraint=eastwest;" parent="i_VqWOhbt_znTBw0zlzr-2" vertex="1">
                    <mxGeometry y="26" width="140" height="26" as="geometry"/>
                </mxCell>
                <mxCell id="i_VqWOhbt_znTBw0zlzr-4" value="animatorStyle" style="text;strokeColor=none;fillColor=none;align=left;verticalAlign=top;spacingLeft=4;spacingRight=4;overflow=hidden;rotatable=0;points=[[0,0.5],[1,0.5]];portConstraint=eastwest;" parent="i_VqWOhbt_znTBw0zlzr-2" vertex="1">
                    <mxGeometry y="52" width="140" height="26" as="geometry"/>
                </mxCell>
                <mxCell id="i_VqWOhbt_znTBw0zlzr-5" value="design" style="text;strokeColor=none;fillColor=none;align=left;verticalAlign=top;spacingLeft=4;spacingRight=4;overflow=hidden;rotatable=0;points=[[0,0.5],[1,0.5]];portConstraint=eastwest;" parent="i_VqWOhbt_znTBw0zlzr-2" vertex="1">
                    <mxGeometry y="78" width="140" height="26" as="geometry"/>
                </mxCell>
                <mxCell id="i_VqWOhbt_znTBw0zlzr-6" value="voice actor" style="swimlane;fontStyle=1;align=center;verticalAlign=top;childLayout=stackLayout;horizontal=1;startSize=26;horizontalStack=0;resizeParent=1;resizeParentMax=0;resizeLast=0;collapsible=1;marginBottom=0;" parent="1" vertex="1">
                    <mxGeometry x="510" y="270" width="160" height="138" as="geometry"/>
                </mxCell>
                <mxCell id="i_VqWOhbt_znTBw0zlzr-7" value="voice actorName" style="text;strokeColor=none;fillColor=none;align=left;verticalAlign=top;spacingLeft=4;spacingRight=4;overflow=hidden;rotatable=0;points=[[0,0.5],[1,0.5]];portConstraint=eastwest;" parent="i_VqWOhbt_znTBw0zlzr-6" vertex="1">
                    <mxGeometry y="26" width="160" height="26" as="geometry"/>
                </mxCell>
                <mxCell id="i_VqWOhbt_znTBw0zlzr-13" value="voice actorStyle" style="text;strokeColor=none;fillColor=none;align=left;verticalAlign=top;spacingLeft=4;spacingRight=4;overflow=hidden;rotatable=0;points=[[0,0.5],[1,0.5]];portConstraint=eastwest;" parent="i_VqWOhbt_znTBw0zlzr-6" vertex="1">
                    <mxGeometry y="52" width="160" height="26" as="geometry"/>
                </mxCell>
                <mxCell id="i_VqWOhbt_znTBw0zlzr-12" value="language" style="text;strokeColor=none;fillColor=none;align=left;verticalAlign=top;spacingLeft=4;spacingRight=4;overflow=hidden;rotatable=0;points=[[0,0.5],[1,0.5]];portConstraint=eastwest;" parent="i_VqWOhbt_znTBw0zlzr-6" vertex="1">
                    <mxGeometry y="78" width="160" height="26" as="geometry"/>
                </mxCell>
                <mxCell id="i_VqWOhbt_znTBw0zlzr-8" value="" style="line;strokeWidth=1;fillColor=none;align=left;verticalAlign=middle;spacingTop=-1;spacingLeft=3;spacingRight=3;rotatable=0;labelPosition=right;points=[];portConstraint=eastwest;strokeColor=inherit;" parent="i_VqWOhbt_znTBw0zlzr-6" vertex="1">
                    <mxGeometry y="104" width="160" height="8" as="geometry"/>
                </mxCell>
                <mxCell id="i_VqWOhbt_znTBw0zlzr-9" value="Dubbing()" style="text;strokeColor=none;fillColor=none;align=left;verticalAlign=top;spacingLeft=4;spacingRight=4;overflow=hidden;rotatable=0;points=[[0,0.5],[1,0.5]];portConstraint=eastwest;" parent="i_VqWOhbt_znTBw0zlzr-6" vertex="1">
                    <mxGeometry y="112" width="160" height="26" as="geometry"/>
                </mxCell>
            </root>
        </mxGraphModel>
    </diagram>
    <diagram id="jJqFZb2rS22cF2tnVfrm" name="class diagram">
        <mxGraphModel dx="1130" dy="792" grid="1" gridSize="10" guides="1" tooltips="1" connect="1" arrows="1" fold="1" page="1" pageScale="1" pageWidth="827" pageHeight="1169" math="0" shadow="0">
            <root>
                <mxCell id="0"/>
                <mxCell id="1" parent="0"/>
                <mxCell id="d0DrouUoHMxw-gykOGG7-3" style="edgeStyle=none;html=1;exitX=1;exitY=0.5;exitDx=0;exitDy=0;entryX=0;entryY=0.5;entryDx=0;entryDy=0;endArrow=none;endFill=0;" parent="1" source="d0DrouUoHMxw-gykOGG7-1" target="d0DrouUoHMxw-gykOGG7-2" edge="1">
                    <mxGeometry relative="1" as="geometry"/>
                </mxCell>
                <mxCell id="d0DrouUoHMxw-gykOGG7-4" value="1" style="edgeLabel;html=1;align=center;verticalAlign=top;resizable=0;points=[];" parent="d0DrouUoHMxw-gykOGG7-3" vertex="1" connectable="0">
                    <mxGeometry x="-0.85" y="-4" relative="1" as="geometry">
                        <mxPoint as="offset"/>
                    </mxGeometry>
                </mxCell>
                <mxCell id="d0DrouUoHMxw-gykOGG7-5" value="1..*" style="edgeLabel;html=1;align=center;verticalAlign=top;resizable=0;points=[];" parent="d0DrouUoHMxw-gykOGG7-3" vertex="1" connectable="0">
                    <mxGeometry x="0.86" y="-3" relative="1" as="geometry">
                        <mxPoint as="offset"/>
                    </mxGeometry>
                </mxCell>
                <mxCell id="d0DrouUoHMxw-gykOGG7-6" value="Film" style="edgeLabel;html=1;align=center;verticalAlign=bottom;resizable=0;points=[];" parent="d0DrouUoHMxw-gykOGG7-3" vertex="1" connectable="0">
                    <mxGeometry x="-0.0714" y="2" relative="1" as="geometry">
                        <mxPoint x="6" as="offset"/>
                    </mxGeometry>
                </mxCell>
                <mxCell id="d0DrouUoHMxw-gykOGG7-1" value="director" style="html=1;" parent="1" vertex="1">
                    <mxGeometry x="170" y="310" width="110" height="50" as="geometry"/>
                </mxCell>
                <mxCell id="d0DrouUoHMxw-gykOGG7-2" value="Movie" style="html=1;" parent="1" vertex="1">
                    <mxGeometry x="480" y="310" width="110" height="50" as="geometry"/>
                </mxCell>
                <mxCell id="d0DrouUoHMxw-gykOGG7-7" value="" style="triangle;whiteSpace=wrap;html=1;fillColor=#1ba1e2;fontColor=#ffffff;strokeColor=#006EAF;" parent="1" vertex="1">
                    <mxGeometry x="458" y="314" width="15" height="15" as="geometry"/>
                </mxCell>
            </root>
        </mxGraphModel>
    </diagram>
</mxfile>